<svg id="Layer_1" data-name="Layer 1" xmlns="http://www.w3.org/2000/svg" viewBox="0 0 512 512"><title>circle-chart</title><path id="red" d="M354.27,417.32a189,189,0,0,1-204.6-5.22L106,419,113.93,469a256.12,256.12,0,0,0,286.38-1.5l-52.66-8.33Z" fill="#656d78"/><path id="pink" d="M500.92,181.28l-25.08,49.25-36-18.35a189.2,189.2,0,0,1-50.21,177.38A194.7,194.7,0,0,1,369.51,407L363,448l52.42,8.3a256.28,256.28,0,0,0,85.47-275Z" fill="#ed7161"/><path id="yellow" d="M268.53,67.5a189.09,189.09,0,0,1,166.14,127l35.28,18,24.87-48.82C458.25,69.08,367.15,1.71,260.06,0l38,38Z" fill="#fc6"/><path id="green" d="M80.09,187A189.09,189.09,0,0,1,249.88,67.21L279.06,38,241.44.39C136.3,6.31,48.14,75.63,14.56,170.76L60,147.59Z" fill="#48cfad"/><path id="blue" d="M134.82,400.86q-6.42-5.39-12.38-11.3A189.19,189.19,0,0,1,74.11,204.85l-20-39.2L9,188.66A256.32,256.32,0,0,0,98.58,457.86l-7.92-50Z" fill="#ccd1d9"/></svg>