<?xml version="1.0" standalone="no"?>
<!DOCTYPE svg PUBLIC "-//W3C//DTD SVG 20010904//EN"
 "http://www.w3.org/TR/2001/REC-SVG-20010904/DTD/svg10.dtd">
<svg version="1.0" xmlns="http://www.w3.org/2000/svg"
 width="300.000000pt" height="300.000000pt" viewBox="0 0 300.000000 300.000000"
 preserveAspectRatio="xMidYMid meet">
<metadata>
Created by potrace 1.11, written by Peter Selinger 2001-2013
</metadata>
<g transform="translate(0.000000,300.000000) scale(0.100000,-0.100000)"
fill="#000000" stroke="none">
<path d="M1348 2995 c-1 -1 -23 -5 -48 -9 -82 -11 -114 -17 -190 -37 -86 -23
-236 -81 -295 -114 -22 -12 -58 -32 -80 -45 -150 -84 -346 -264 -455 -418 -87
-123 -162 -272 -204 -406 -31 -99 -39 -132 -62 -241 -13 -62 -12 -369 1 -440
7 -38 15 -83 18 -100 8 -54 48 -178 85 -265 107 -253 265 -455 486 -620 211
-158 422 -245 691 -287 98 -15 421 -7 477 12 7 2 31 7 53 10 93 13 311 99 435
171 189 110 383 297 505 488 84 132 183 369 201 483 3 21 12 69 19 107 13 70
14 383 1 436 -7 29 -14 64 -20 100 -2 14 -9 37 -15 53 -6 15 -9 27 -6 27 2 0
-11 44 -30 97 -189 527 -635 898 -1188 986 -72 12 -369 21 -379 12z"/>
</g>
</svg>
